<?xml version="1.0" encoding="UTF-8" standalone="no"?>
<svg
   xmlns:dc="http://purl.org/dc/elements/1.1/"
   xmlns:cc="http://creativecommons.org/ns#"
   xmlns:rdf="http://www.w3.org/1999/02/22-rdf-syntax-ns#"
   xmlns:svg="http://www.w3.org/2000/svg"
   xmlns="http://www.w3.org/2000/svg"
   xmlns:sodipodi="http://sodipodi.sourceforge.net/DTD/sodipodi-0.dtd"
   xmlns:inkscape="http://www.inkscape.org/namespaces/inkscape"
   width="128mm"
   height="128mm"
   viewBox="0 0 128 128"
   version="1.1"
   id="svg8"
   inkscape:version="1.0.1 (3bc2e813f5, 2020-09-07)"
   sodipodi:docname="logo_laurel.svg">
  <defs
     id="defs2" />
  <sodipodi:namedview
     id="base"
     pagecolor="#609f6d"
     bordercolor="#666666"
     borderopacity="1.0"
     inkscape:pageopacity="1"
     inkscape:pageshadow="2"
     inkscape:zoom="0.98994949"
     inkscape:cx="363.60663"
     inkscape:cy="215.42713"
     inkscape:document-units="mm"
     inkscape:current-layer="layer1"
     inkscape:document-rotation="0"
     showgrid="false"
     inkscape:window-width="1920"
     inkscape:window-height="1007"
     inkscape:window-x="-9"
     inkscape:window-y="-9"
     inkscape:window-maximized="1"
     inkscape:pagecheckerboard="false" />
  <metadata
     id="metadata5">
    <rdf:RDF>
      <cc:Work
         rdf:about="">
        <dc:format>image/svg+xml</dc:format>
        <dc:type
           rdf:resource="http://purl.org/dc/dcmitype/StillImage" />
        <dc:title></dc:title>
      </cc:Work>
    </rdf:RDF>
  </metadata>
  <g
     inkscape:label="Layer 1"
     inkscape:groupmode="layer"
     id="layer1">
    <rect
       style="opacity:0.982892;fill:#609f6d;fill-opacity:1;stroke:none;stroke-width:6.80694;stroke-linecap:round;stroke-linejoin:round"
       id="rect853"
       width="128"
       height="128"
       x="-3.8302694e-15"
       y="-6.8833828e-15" />
    <g
       id="g879"
       transform="matrix(0.31666511,0,0,0.31666511,21.367077,22.921583)"
       style="fill:#ffffff;fill-opacity:1">
      <path
         fill="#000000"
         d="m 210.3,16.6 c -0.5,2.6 -0.3,11 0.4,14.2 1.2,5.6 1.7,6.9 3.9,10.7 2.2,3.6 5.8,7.1 7,6.7 1.1,-0.3 2.6,-3.9 3.1,-7.4 0.5,-3.2 0.4,-4.1 -0.4,-7.3 -1.7,-6.6 -6.4,-14 -10.8,-16.9 -1.2,-0.8 -2.4,-1.5 -2.5,-1.5 -0.2,0 -0.5,0.7 -0.7,1.5 z"
         id="path835"
         style="fill:#ffffff;fill-opacity:1" />
      <path
         fill="#000000"
         d="m 236.5,31.2 c -1.8,1.8 -5.5,7.9 -7.9,12.7 -2.2,4.5 -3.6,9.5 -3.6,13.5 0,3.8 0.9,8 1.9,8.4 1,0.4 4.7,-1.5 6.5,-3.5 5,-5.2 6.9,-9.8 7.3,-18.2 0.2,-4.6 0.1,-6.2 -0.8,-9.7 -0.6,-2.4 -1.2,-4.4 -1.4,-4.6 -0.2,-0.3 -1.1,0.4 -2,1.4 z"
         id="path837"
         style="fill:#ffffff;fill-opacity:1" />
      <path
         fill="#000000"
         d="m 198.2,41.6 c 0,2 2.6,8.1 4.9,11.7 4.9,7.5 10.9,12.2 15.5,12.3 2,0 2.1,-0.1 2.6,-1.7 1.1,-4.3 -1.2,-10 -6.3,-15.3 -3.4,-3.4 -7.7,-5.8 -12.5,-6.9 -1.3,-0.3 -2.7,-0.7 -3.2,-0.8 -0.8,-0.2 -1,0 -1,0.7 z"
         id="path839"
         style="fill:#ffffff;fill-opacity:1" />
      <path
         fill="#000000"
         d="m 242.9,59.9 c -4.6,3.1 -10.9,10.2 -13.9,16 -3.1,5.6 -4.7,13.6 -3.3,16.1 0.4,0.8 0.8,0.9 2.2,0.6 7.1,-1.3 13.4,-8.4 16.2,-18.3 1.1,-3.8 1.8,-12.7 1.1,-14.5 l -0.4,-1.1 z"
         id="path841"
         style="fill:#ffffff;fill-opacity:1" />
      <path
         fill="#000000"
         d="m 201.4,63.6 c -0.3,3.4 1.8,11.1 4.2,15.7 2.3,4.3 6.1,8.4 10.1,10.7 1.8,1 3.3,1.9 3.4,1.9 0.1,0 0.6,-0.9 1,-2 3.3,-8.1 -3.1,-20.4 -13.3,-25.3 -3.3,-1.6 -5.3,-2 -5.4,-1 z"
         id="path843"
         style="fill:#ffffff;fill-opacity:1" />
      <path
         fill="#000000"
         d="m 223.8,72.7 c 0,0.2 -0.4,4.2 -0.8,8.8 -0.9,11 -1.4,14.1 -3.4,22.3 -3.5,14.5 -8.8,27.8 -15.6,38.9 -5.5,9.1 -18.7,25.6 -23.1,29 -1.1,0.9 -3.3,2.8 -4.9,4.2 -7.2,6.5 -18.4,14 -28.9,19.2 -31.6,15.6 -70.9,18.3 -103.1,7.1 -8.2,-2.8 -17.8,-7.4 -30.7,-14.7 -1.6,-0.9 -1.6,-0.9 -2.5,0.2 -0.5,0.6 -0.9,1.4 -0.9,1.8 0,2.1 19.3,11.8 32,16.2 30.4,10.3 65.9,9.2 96.3,-2.9 21.6,-8.7 42.9,-24.9 56.7,-43.1 3.4,-4.5 10.8,-14.9 10.8,-15.2 0,-0.1 1.8,-3.8 3.9,-8.2 4.6,-9.3 7.3,-16.4 9.8,-26.4 2.2,-8.7 3.6,-16.9 4.3,-25.6 0.5,-5.5 0.5,-13.7 0.1,-11.6 z"
         id="path845"
         style="fill:#ffffff;fill-opacity:1" />
      <path
         fill="#000000"
         d="m 200,90.8 c 0,4.5 0.2,6.4 1.2,9.5 2.2,7.4 4.4,10.9 9.4,14.8 l 2.3,1.8 0.9,-1.2 c 1.4,-1.8 2.7,-5.6 2.7,-8 0,-4.9 -2.3,-10.1 -6.6,-15.3 -2.6,-3.1 -8,-7.3 -9.4,-7.3 -0.3,0.2 -0.5,1.6 -0.5,5.7 z"
         id="path847"
         style="fill:#ffffff;fill-opacity:1" />
      <path
         fill="#000000"
         d="m 242.2,90.8 c -5.7,3.2 -11.4,7.4 -14.7,10.9 -4.2,4.5 -7.2,10.2 -7.5,14.4 -0.2,3.2 -0.6,2.9 4.6,2.8 2.2,0 3.2,-0.4 6.4,-2.3 6.5,-3.9 10.6,-9.4 13.3,-18.1 1.3,-4.2 2.1,-9.5 1.4,-9.5 -0.2,0.1 -1.8,0.8 -3.5,1.8 z"
         id="path849"
         style="fill:#ffffff;fill-opacity:1" />
      <path
         fill="#000000"
         d="m 194.9,107.2 c -1.6,1.9 -2.4,10.8 -1.6,16.5 0.3,2.2 1.1,5.4 1.8,7.1 1.3,3.4 5.6,9.6 6.9,9.9 1,0.2 3.6,-3.3 4.7,-6.4 1.8,-4.9 0.7,-12.7 -2.7,-18.4 -1.3,-2.2 -7.6,-9.2 -8.3,-9.2 -0.1,-0.1 -0.5,0.2 -0.8,0.5 z"
         id="path851"
         style="fill:#ffffff;fill-opacity:1" />
      <path
         fill="#000000"
         d="m 233.7,121.7 c -8.2,2.8 -13.2,5.6 -18,10.5 -2.2,2.2 -4.7,5.3 -5.6,6.7 -1.5,2.5 -2.1,5.2 -1.3,6 0.2,0.2 2.7,0.3 5.5,0.3 4.9,0 5.2,0 8.7,-1.8 6.1,-3 11.4,-8.7 15.2,-16.3 0.9,-1.8 1.8,-4.2 2.1,-5.3 0.5,-2.4 0.5,-2.4 -6.6,-0.1 z"
         id="path853"
         style="fill:#ffffff;fill-opacity:1" />
      <path
         fill="#000000"
         d="m 184.3,129.2 c -4.2,9.5 -5.1,20.6 -2.2,28.3 1,2.9 3,5.5 4,5.5 0.3,0 1.6,-1.1 2.8,-2.4 5.4,-6.1 6.9,-14.2 3.9,-22.7 -1.1,-3.3 -4.5,-8.9 -6.4,-10.6 -0.9,-0.8 -0.9,-0.7 -2.1,1.9 z"
         id="path855"
         style="fill:#ffffff;fill-opacity:1" />
      <path
         fill="#000000"
         d="m 169.8,147.5 c -2.5,3.4 -6.2,11 -7.2,14.9 -0.7,2.6 -1,5.3 -1.1,9.1 0,5 0,5.7 1.2,8.2 l 1.3,2.8 1.8,-1.1 c 3.5,-1.9 6.5,-5 7.9,-7.9 0.7,-1.5 1.5,-3.1 1.7,-3.6 0.9,-1.7 1.1,-11.6 0.2,-15.2 -0.8,-3.3 -3.4,-9.3 -4.1,-9.3 -0.1,0.1 -0.9,1 -1.7,2.1 z"
         id="path857"
         style="fill:#ffffff;fill-opacity:1" />
      <path
         fill="#000000"
         d="m 219.7,150.4 c -9.2,1.7 -17.3,5 -22,9.1 -2.5,2.2 -6.7,7.4 -6.7,8.3 0,0.8 5.1,2.8 7.8,3.1 7.2,0.8 18,-4.3 23.8,-11.2 2.1,-2.5 6.7,-9.1 6.7,-9.5 0.1,-0.7 -5.7,-0.5 -9.6,0.2 z"
         id="path859"
         style="fill:#ffffff;fill-opacity:1" />
      <path
         fill="#000000"
         d="m 150.7,163.8 c -5.2,4.9 -9.9,12.6 -11.5,18.9 -0.8,2.9 -0.9,9.4 -0.3,11.6 0.4,1.7 1.9,1.7 5,0.3 5.1,-2.3 9.1,-7.3 10.9,-13.8 1.1,-3.9 1.1,-12.2 0,-16.3 -0.5,-1.6 -1,-2.9 -1.3,-2.9 -0.2,0 -1.5,1 -2.8,2.2 z"
         id="path861"
         style="fill:#ffffff;fill-opacity:1" />
      <path
         fill="#000000"
         d="m 128.9,174.9 c -4,2.6 -10.3,9.1 -12.7,13.1 -1,1.8 -2.4,4.6 -2.9,6.3 -1.2,3.6 -1.8,9.7 -0.9,10.1 0.9,0.5 6.2,-0.7 8.7,-1.9 6.4,-3.2 11.6,-12.5 12.5,-22.4 0.3,-3 -0.4,-7.1 -1.2,-7.1 -0.3,0 -1.8,0.9 -3.5,1.9 z"
         id="path863"
         style="fill:#ffffff;fill-opacity:1" />
      <path
         fill="#000000"
         d="m 191.6,177.2 c -7.7,0.8 -15.7,4.1 -20.7,8.7 l -2.7,2.5 2.1,1.5 c 3.6,2.6 6.3,3.6 11,3.8 5.3,0.3 8.8,-0.5 14.7,-3.4 4.7,-2.3 9.2,-5.6 12.8,-9.2 1.9,-1.9 2.2,-2.6 1.7,-2.9 -1.5,-1 -13.1,-1.5 -18.9,-1 z"
         id="path865"
         style="fill:#ffffff;fill-opacity:1" />
      <path
         fill="#000000"
         d="m 106.9,180.4 c -7.4,2.6 -16.9,10 -20.2,15.7 -1.5,2.6 -3.8,9.3 -3.5,10.2 0.7,1.8 8.9,1 13.1,-1.2 1.1,-0.6 3.5,-2.5 5.2,-4.2 4,-4 6.7,-9.3 7.5,-15 0.3,-2.1 0.7,-4.4 0.8,-5.1 0.3,-1.4 0.2,-1.4 -2.9,-0.4 z"
         id="path867"
         style="fill:#ffffff;fill-opacity:1" />
      <path
         fill="#000000"
         d="m 79,182 c -11.2,3 -19.5,8.7 -23.9,16.3 -1.1,1.9 -1.9,3.7 -1.8,4 0.6,0.9 4.8,1.9 7.9,1.9 6.2,0 11.6,-2.5 16.6,-7.7 2.1,-2.1 3.4,-4 5.3,-8.1 3.6,-7.6 3.6,-7.4 1.1,-7.4 -1,0.1 -3.4,0.5 -5.2,1 z"
         id="path869"
         style="fill:#ffffff;fill-opacity:1" />
      <path
         fill="#000000"
         d="m 152.8,198.3 c -3.5,0.8 -8.3,2.8 -9.4,4.1 -0.7,0.8 -0.7,1 0.1,2.7 1.1,2.2 5.4,5.2 9.1,6.5 1.6,0.5 4.6,0.9 7.6,1.1 5.7,0.3 10.9,-0.7 16.7,-3.1 3.9,-1.7 9.5,-5.2 9.1,-5.8 -0.8,-1.3 -8.3,-3.8 -15.2,-5.2 -5.7,-1.1 -13.5,-1.3 -18,-0.3 z"
         id="path871"
         style="fill:#ffffff;fill-opacity:1" />
      <path
         fill="#000000"
         d="m 120.2,210 c -3.1,0.5 -6.4,1.8 -6.4,2.5 0,0.3 0.7,1.7 1.5,3.1 3,5.2 8.2,8.9 15.1,10.8 6.5,1.8 17.4,0.8 24,-2.2 2.7,-1.2 2.6,-1.4 -3.3,-5.2 -9.7,-6.5 -23,-10.4 -30.9,-9 z"
         id="path873"
         style="fill:#ffffff;fill-opacity:1" />
      <path
         fill="#000000"
         d="m 51,212.8 c -0.4,3 0.9,8.2 3,11.8 0.9,1.6 3.1,4.2 4.8,5.8 5.4,5 16.1,9.3 24.8,10.2 l 3.3,0.3 -1.6,-2.8 c -9.2,-16.5 -19.7,-25.4 -31.8,-27 l -2.3,-0.3 z"
         id="path875"
         style="fill:#ffffff;fill-opacity:1" />
      <path
         fill="#000000"
         d="m 84.4,214.6 c -3.5,1 0,9.4 5.9,14.3 5.6,4.6 13.2,7.1 22.6,7.5 6.3,0.2 9.5,-0.1 9.8,-1.1 0.3,-0.9 -9.7,-10.6 -13.7,-13.3 -4.3,-3 -9.4,-5.4 -13.5,-6.4 -3.5,-1.1 -9.4,-1.5 -11.1,-1 z"
         id="path877"
         style="fill:#ffffff;fill-opacity:1" />
    </g>
  </g>
</svg>
